# xmcd
#
# Track frame offsets:
#	150
#	26057
#	49630
#
# Disc length: 1003 seconds
#
# Revision: 1
# Processed by: cddbd v1.5PL3 Copyright (c) Steve Scherf et al.
# Submitted via: CDex 1.50Beta5
#
DISCID=1d03e903
DTITLE=宇徳敬子 - 不思議な世界
DYEAR=1900
DGENRE=Pop
TTITLE0=不思議な世界
TTITLE1=恋は差ディスティック
TTITLE2=不思議な世界 (original karaoke)
EXTD=
EXTT0=
EXTT1=
EXTT2=
PLAYORDER=
